<?xml version="1.0" encoding="UTF-8"?>
<svg id="svg2" width="305" height="305" version="1.1" viewBox="0 0 305 305" xml:space="preserve" xmlns="http://www.w3.org/2000/svg" xmlns:cc="http://creativecommons.org/ns#" xmlns:dc="http://purl.org/dc/elements/1.1/" xmlns:rdf="http://www.w3.org/1999/02/22-rdf-syntax-ns#"><metadata id="metadata8"><rdf:RDF><cc:Work rdf:about=""><dc:format>image/svg+xml</dc:format><dc:type rdf:resource="http://purl.org/dc/dcmitype/StillImage"/><dc:title/></cc:Work></rdf:RDF></metadata><g id="g10" transform="matrix(1.3333 0 0 -1.3333 -14.973 233.68)"><path id="path24" d="m68.955 63.771 0.3215-13.595 14.316-8.8758-0.3203 13.603-14.317 8.868" fill="#a22296"/><path id="path26" d="m103.9 7.267-0.313 13.314-12.546 7.7739c-0.1863 0.116-0.3511 0.2531-0.532 0.375l0.3172-13.36 13.074-8.1031" fill="#a22296"/><path id="path28" d="m59.195-10.66-32.732 20.282-0.7953 34.038 16.046 6.9191-0.3215 13.595-25.611-11.041c-1.9695-0.8562-3.1531-2.6641-3.105-4.7711l0.9609-40.835c0.0473-2.1082 1.3273-4.1703 3.3504-5.4332l39.255-24.327c1.8289-1.1308 4.0344-1.4398 5.8949-0.85195 0.1969 0.06211 0.3758 0.13203 0.5551 0.20313l24.088 10.384-13.065 8.0989-14.52-6.261" fill="#a22296"/><path id="path30" d="m164.96 64.549c-0.06 2.4477-1.547 4.8723-3.909 6.331l-47.657 29.536-1.472-0.634 0.337-14.293 37.738-23.38 0.903-38.24 14.432-8.9429 0.787 0.339-1.159 49.284" fill="#ba4fae"/><path id="path32" d="m107.88-2.5748-44.276 27.439-1.0871 46.061 20.172 8.689-0.3735 15.863-31.322-13.501c-2.2964-1.002-3.6824-3.121-3.6222-5.569l1.2754-53.994c0.0476-2.452 1.5414-4.861 3.9039-6.3192l51.896-32.172c2.138-1.3231 4.71-1.6813 6.878-0.9969 0.222 0.0707 0.438 0.1527 0.648 0.2457l30.655 13.215-15.244 9.4457-19.503-8.4066" fill="#ba4fae"/><path id="path34" d="m164.81 7.876-57.832 35.836-1.421 60.15 56.41 24.314 57.826-35.825 1.421-60.15zm67.627 94.493-66.542 41.243c-2.454 1.521-5.381 1.922-7.884 1.131-0.245-0.077-0.487-0.166-0.724-0.267l-64.903-27.989c-2.6297-1.134-4.2101-3.549-4.1445-6.354l1.6316-69.221c0.066-2.8039 1.7739-5.559 4.4692-7.2289l66.536-41.232c2.447-1.5141 5.373-1.927 7.861-1.141 0.247 0.0781 0.499 0.1718 0.747 0.2781l64.909 27.977c2.63 1.134 4.205 3.561 4.139 6.3649l-1.626 69.21c-0.066 2.804-1.774 5.558-4.469 7.229" fill="#d32b9e"/></g></svg>
